<?xml version="1.0" encoding="UTF-8"?>
<svg width="110px" height="110px" viewBox="0 0 110 110" version="1.1" xmlns="http://www.w3.org/2000/svg" xmlns:xlink="http://www.w3.org/1999/xlink">
    <!-- Generator: Sketch 53.2 (72643) - https://sketchapp.com -->
    <title>定位 (1)</title>
    <desc>Created with Sketch.</desc>
    <defs>
        <rect id="path-1" x="0" y="0" width="70" height="70" rx="8"></rect>
        <filter x="-45.7%" y="-40.0%" width="191.4%" height="191.4%" filterUnits="objectBoundingBox" id="filter-2">
            <feOffset dx="0" dy="4" in="SourceAlpha" result="shadowOffsetOuter1"></feOffset>
            <feGaussianBlur stdDeviation="10" in="shadowOffsetOuter1" result="shadowBlurOuter1"></feGaussianBlur>
            <feComposite in="shadowBlurOuter1" in2="SourceAlpha" operator="out" result="shadowBlurOuter1"></feComposite>
            <feColorMatrix values="0 0 0 0 0.756862745   0 0 0 0 0.819607843   0 0 0 0 0.976470588  0 0 0 1 0" type="matrix" in="shadowBlurOuter1"></feColorMatrix>
        </filter>
    </defs>
    <g id="Page-1" stroke="none" stroke-width="1" fill="none" fill-rule="evenodd">
        <g id="提交订单-copy-2" transform="translate(-630.000000, -796.000000)">
            <g id="定位-(1)" transform="translate(650.000000, 812.000000)">
                <g id="Rectangle">
                    <use fill="black" fill-opacity="1" filter="url(#filter-2)" xlink:href="#path-1"></use>
                    <use fill-opacity="0.9" fill="#FFFFFF" fill-rule="evenodd" xlink:href="#path-1"></use>
                </g>
                <path d="M27,35.0628764 C27,39.51588 30.6098727,43.1257526 35.0628763,43.1257526 C39.5158798,43.1257526 43.1257525,39.51588 43.1257525,35.0628764 C43.1257526,32.1822881 41.588977,29.5205148 39.0943144,28.0802206 C36.5996518,26.6399265 33.5261007,26.6399265 31.0314381,28.0802206 C28.5367755,29.5205148 27,32.1822881 27,35.0628764 Z" id="Shape" fill="#14DBAB" fill-rule="nonzero"></path>
                <path d="M54.8575251,33.890301 L53.1906355,33.890301 C52.6521739,24.670903 45.2635452,17.2822742 36.0441472,16.7438127 L36.0441472,15.0769231 C36.0441472,14.4822742 35.5618729,14 34.9672241,14 C34.3725753,14 33.890301,14.4822742 33.890301,15.0769231 L33.890301,16.7438127 C24.670903,17.2822742 17.2822742,24.670903 16.7438127,33.890301 L15.0769231,33.890301 C14.4822742,33.890301 14,34.3725753 14,34.9672241 C14,35.5618729 14.4822742,36.0441472 15.0769231,36.0441472 L16.7438127,36.0441472 C17.2822742,45.2635452 24.670903,52.6521739 33.890301,53.1906355 L33.890301,54.8575251 C33.890301,55.4521739 34.3725753,55.9344482 34.9672241,55.9344482 C35.5618729,55.9344482 36.0441472,55.4521739 36.0441472,54.8575251 L36.0441472,53.1906355 C45.2635452,52.6521739 52.6521739,45.2635452 53.1906355,36.0441472 L54.8575251,36.0441472 C55.4521739,36.0441472 55.9344482,35.5618729 55.9344482,34.9672241 C55.9297659,34.3725753 55.4521739,33.890301 54.8575251,33.890301 Z M36.0394649,51.0414716 L36.0394649,48.4100334 C36.0394649,47.8153846 35.5571906,47.3331104 34.9625418,47.3331104 C34.367893,47.3331104 33.8856187,47.8153846 33.8856187,48.4100334 L33.8856187,51.0414716 C25.8555184,50.5076923 19.4267559,44.0742475 18.8929766,36.0441472 L21.5244147,36.0441472 C22.1190635,36.0441472 22.6013378,35.5618729 22.6013378,34.9672241 C22.6013378,34.3725753 22.1190635,33.890301 21.5244147,33.890301 L18.8929766,33.890301 C19.4267559,25.8555184 25.8555184,19.4267559 33.890301,18.8929766 L33.890301,21.5244147 C33.890301,22.1190635 34.3725753,22.6013378 34.9672241,22.6013378 C35.5618729,22.6013378 36.0441472,22.1190635 36.0441472,21.5244147 L36.0441472,18.8929766 C44.0789298,19.4267559 50.5076923,25.8555184 51.0414716,33.890301 L48.4100334,33.890301 C47.8153846,33.890301 47.3331104,34.3725753 47.3331104,34.9672241 C47.3331104,35.5618729 47.8153846,36.0441472 48.4100334,36.0441472 L51.0414716,36.0441472 C50.50301,44.0742475 44.0742475,50.5076923 36.0394649,51.0414716 L36.0394649,51.0414716 Z" id="Shape" fill="#14DBAB" fill-rule="nonzero"></path>
            </g>
        </g>
    </g>
</svg>